<svg width="22" height="22" viewBox="0 0 21 20" fill="none" xmlns="http://www.w3.org/2000/svg">
<path fill-rule="evenodd" clip-rule="evenodd" d="M9.87334 0.045052C7.53706 0.351634 5.52108 2.42557 5.92616 5.07661C6.27472 7.28581 8.43201 9.20646 11.1639 8.82774C13.5002 8.50312 15.5068 6.44722 15.1017 3.8052C14.7626 1.57796 12.6241 -0.315633 9.87334 0.045052ZM10.09 0.613131C8.02693 0.83856 6.25587 2.5969 6.52907 4.85118C6.76458 6.83495 8.59216 8.48509 10.9379 8.25064C13.0009 8.04325 14.7626 6.26687 14.4988 4.02161C14.2821 2.05587 12.4263 0.360652 10.09 0.613131Z" fill="#8A8A8A"/>
<path fill-rule="evenodd" clip-rule="evenodd" d="M5.51172 18.9992H15.5634L15.5163 13.1831H5.51172V18.9992ZM6.97189 17.6646C6.68928 17.7638 6.7458 18.0614 7.05668 18.0974C8.17772 18.2417 8.01757 17.7097 7.70669 17.6556C7.58423 17.6376 7.05668 17.6376 6.97189 17.6646ZM8.49801 18.0433C8.79947 18.1606 11.0604 18.0974 11.5408 18.0974C12.0119 18.0974 12.0495 17.6556 11.5408 17.6556H8.79005C8.46033 17.6556 8.41323 17.7638 8.49801 18.0433Z" fill="#8A8A8A"/>
<path fill-rule="evenodd" clip-rule="evenodd" d="M8.20611 1.89352C8.31915 2.05583 8.46988 2.07387 8.4322 2.2993C8.23437 2.64195 7.98944 2.33536 7.84813 2.22716C7.46189 2.50669 6.99087 3.53464 6.99087 4.21093C7.24522 4.21093 7.49957 4.16584 7.49015 4.43636C7.48073 4.69785 7.21696 4.65277 6.98145 4.65277C7.04739 5.44628 7.41479 6.26683 7.84813 6.64555C8.1119 6.5103 7.99886 6.35701 8.3851 6.44718C8.51698 6.73572 8.3851 6.8259 8.19669 6.97919C8.88438 7.74564 10.5612 8.07026 11.8707 7.5653C12.191 7.43906 12.6714 7.15953 12.8316 6.97919C12.6526 6.81688 12.5113 6.73572 12.6526 6.44718C13.0294 6.35701 12.9258 6.5103 13.1801 6.64555C13.6229 6.26683 13.9809 5.44628 14.0468 4.65277C13.8113 4.65277 13.5475 4.69785 13.5381 4.43636C13.5287 4.16584 13.7925 4.21093 14.0374 4.21093C14.0374 3.52563 13.5664 2.50669 13.1801 2.22716C13.0388 2.34438 12.7939 2.64195 12.5961 2.2993C12.5584 2.06485 12.7091 2.06485 12.8221 1.89352C12.775 1.82139 12.8127 1.86647 12.7562 1.81237C12.7279 1.78532 12.6714 1.74023 12.6526 1.7222C12.1156 1.34348 11.475 1.11805 10.7967 1.05493L10.7402 1.34348C10.712 1.4607 10.6837 1.51481 10.5518 1.53284C10.2504 1.57793 10.2786 1.28938 10.2786 1.05493C9.55324 1.10903 8.97859 1.31643 8.40394 1.70417L8.20611 1.89352ZM10.2786 4.21994C10.1656 4.43636 9.61918 4.46341 9.68513 5.14871C9.78875 6.07747 11.2489 6.07747 11.3431 5.14871C11.4185 4.45439 10.7873 4.37324 10.7496 4.21994C10.6649 3.85926 10.9569 2.83131 10.5141 2.83131C10.2127 2.83131 10.2786 3.17396 10.2786 3.4084C10.288 3.67892 10.2786 3.94943 10.2786 4.21994Z" fill="#8A8A8A"/>
<path fill-rule="evenodd" clip-rule="evenodd" d="M3.03418 18.9901H5.069L5.05016 13.1831H3.05302L3.03418 18.9901Z" fill="#8A8A8A"/>
<path fill-rule="evenodd" clip-rule="evenodd" d="M15.9873 18.9901H17.9939V13.1831H15.9967L15.9873 18.9901Z" fill="#8A8A8A"/>
<path fill-rule="evenodd" clip-rule="evenodd" d="M0.0478516 17.385H2.59138L2.57254 14.7881H0.0666925L0.0478516 17.385Z" fill="#8A8A8A"/>
<path fill-rule="evenodd" clip-rule="evenodd" d="M18.4551 17.385H20.9798V14.7881H18.4739L18.4551 17.385Z" fill="#8A8A8A"/>
<path fill-rule="evenodd" clip-rule="evenodd" d="M0.048079 12.5337L0.000976562 14.3462H2.57277C2.57277 13.742 2.61045 12.8313 2.53509 12.2632C2.19595 12.137 0.858241 12.2001 0.424899 12.2001C0.114022 12.2001 0.048079 12.2362 0.048079 12.5337Z" fill="#8A8A8A"/>
<path fill-rule="evenodd" clip-rule="evenodd" d="M20.9421 19.8738C21.0174 19.7115 21.008 18.0884 20.9609 17.8359H18.4739C18.4268 18.1155 18.4645 18.6204 18.4645 18.936C18.4645 20.1443 18.2384 19.982 19.8116 19.982C20.1602 19.982 20.7254 20.0632 20.9421 19.8738Z" fill="#8A8A8A"/>
<path fill-rule="evenodd" clip-rule="evenodd" d="M2.53422 19.8738C2.60017 19.7115 2.60017 18.0884 2.55306 17.8359H0.0660558C0.0189534 18.1155 0.0472149 18.6204 0.0472149 18.936C0.0472149 20.1443 -0.169456 19.982 1.40376 19.982C1.7429 19.982 2.30813 20.0632 2.53422 19.8738Z" fill="#8A8A8A"/>
<path fill-rule="evenodd" clip-rule="evenodd" d="M18.4648 12.5337V14.3462H20.9801C20.9801 13.742 21.0272 12.8313 20.9424 12.2632C20.6127 12.137 19.275 12.2001 18.8322 12.2001C18.5308 12.2001 18.4648 12.2362 18.4648 12.5337Z" fill="#8A8A8A"/>
<path fill-rule="evenodd" clip-rule="evenodd" d="M9.81641 10.9016H11.2201V9.27856C10.6831 9.31463 10.3534 9.31463 9.81641 9.27856V10.9016Z" fill="#8A8A8A"/>
<path fill-rule="evenodd" clip-rule="evenodd" d="M8.91262 12.7322L10.2974 12.7502C10.3634 12.5248 10.354 11.587 10.3163 11.3436C10.0902 11.2895 9.11045 11.2895 8.89378 11.3436C8.8561 11.587 8.84668 12.5248 8.91262 12.7322Z" fill="#8A8A8A"/>
<path fill-rule="evenodd" clip-rule="evenodd" d="M10.778 12.7322L12.1157 12.7502C12.1911 12.5248 12.1723 11.587 12.1346 11.3436C11.9179 11.2895 10.9853 11.2895 10.7686 11.3436C10.7309 11.587 10.7121 12.5248 10.778 12.7322Z" fill="#8A8A8A"/>
<path fill-rule="evenodd" clip-rule="evenodd" d="M8.92188 12.7051H10.2784V11.3616H8.9313L8.92188 12.7051Z" fill="#8A8A8A"/>
<path fill-rule="evenodd" clip-rule="evenodd" d="M10.7969 12.7051H12.1063V11.3616H10.7969V12.7051Z" fill="#8A8A8A"/>
<path fill-rule="evenodd" clip-rule="evenodd" d="M7.41429 12.7322L8.4317 12.7502C8.49764 12.5248 8.4788 11.587 8.44112 11.3436C8.23387 11.2895 7.61212 11.2895 7.40487 11.3436C7.35777 11.587 7.34835 12.5248 7.41429 12.7322Z" fill="#8A8A8A"/>
<path fill-rule="evenodd" clip-rule="evenodd" d="M12.605 12.7322L13.613 12.7502C13.6789 12.5248 13.6695 11.587 13.6318 11.3436C13.4152 11.2895 12.8028 11.2895 12.5862 11.3436C12.5485 11.587 12.5391 12.5248 12.605 12.7322Z" fill="#8A8A8A"/>
<path fill-rule="evenodd" clip-rule="evenodd" d="M12.6143 12.7051H13.6034V11.3616H12.6143V12.7051Z" fill="#8A8A8A"/>
<path fill-rule="evenodd" clip-rule="evenodd" d="M7.43359 12.7051H8.41332V11.3616H7.43359V12.7051Z" fill="#8A8A8A"/>
<path fill-rule="evenodd" clip-rule="evenodd" d="M10.3721 4.73399C9.93879 4.93237 10.1931 5.56357 10.683 5.36519C11.0598 5.22092 10.8243 4.53562 10.3721 4.73399Z" fill="#8A8A8A"/>
</svg>
